<?xml version="1.0" ?><svg fill="none" height="24" viewBox="0 0 24 24" width="24" xmlns="http://www.w3.org/2000/svg"><path clip-rule="evenodd" d="M7.60557 5.55279C8.0814 4.60114 9.05406 4 10.118 4H13.882C14.9459 4 15.9186 4.60114 16.3944 5.55279C16.5315 5.82687 16.8116 6 17.118 6H18C19.6569 6 21 7.34315 21 9V18C21 19.6569 19.6569 21 18 21H6C4.34315 21 3 19.6569 3 18V9C3 7.34315 4.34315 6 6 6H6.88197C7.1884 6 7.46853 5.82687 7.60557 5.55279ZM10.118 6C9.8116 6 9.53147 6.17313 9.39443 6.44721C8.9186 7.39886 7.94594 8 6.88197 8H6C5.44772 8 5 8.44772 5 9V18C5 18.5523 5.44772 19 6 19H18C18.5523 19 19 18.5523 19 18V9C19 8.44772 18.5523 8 18 8H17.118C16.0541 8 15.0814 7.39886 14.6056 6.44721C14.4685 6.17313 14.1884 6 13.882 6H10.118ZM12 11C10.8954 11 10 11.8954 10 13C10 14.1046 10.8954 15 12 15C13.1046 15 14 14.1046 14 13C14 11.8954 13.1046 11 12 11ZM8 13C8 10.7909 9.79086 9 12 9C14.2091 9 16 10.7909 16 13C16 15.2091 14.2091 17 12 17C9.79086 17 8 15.2091 8 13Z" fill="black" fill-rule="evenodd"/></svg>