<svg width="67" height="49" viewBox="0 0 67 49" fill="none" xmlns="http://www.w3.org/2000/svg">
<g filter="url(#filter0_d_1002_6786)">
<path d="M35.1279 42.8782V37.5626C46.0159 40.1642 52.4437 39.8918 64.2098 37.5602V42.8702C64.2098 43.1196 64.032 43.3367 63.7875 43.3888C52.4767 45.7973 46.1517 45.8346 35.541 43.3946C35.3007 43.3394 35.1279 43.1243 35.1279 42.8782Z" fill="url(#paint0_linear_1002_6786)" stroke="url(#paint1_linear_1002_6786)" stroke-width="0.0964322"/>
<g filter="url(#filter1_d_1002_6786)">
<ellipse cx="49.6688" cy="37.3614" rx="14.5892" ry="2.66411" fill="url(#paint2_linear_1002_6786)"/>
<path d="M64.2098 37.3614C64.2098 37.5261 64.1185 37.6936 63.9295 37.8623C63.7406 38.0309 63.4592 38.1957 63.0924 38.3541C62.359 38.6707 61.2949 38.957 59.9762 39.1978C57.3398 39.6792 53.6955 39.9773 49.6688 39.9773C45.6421 39.9773 41.9978 39.6792 39.3613 39.1978C38.0427 38.957 36.9785 38.6707 36.2452 38.3541C35.8783 38.1957 35.597 38.0309 35.4081 37.8623C35.219 37.6936 35.1278 37.5261 35.1278 37.3614C35.1278 37.1967 35.219 37.0292 35.4081 36.8604C35.597 36.6919 35.8783 36.527 36.2452 36.3687C36.9785 36.052 38.0427 35.7658 39.3613 35.525C41.9978 35.0436 45.6421 34.7455 49.6688 34.7455C53.6955 34.7455 57.3398 35.0436 59.9762 35.525C61.2949 35.7658 62.359 36.052 63.0924 36.3687C63.4592 36.527 63.7406 36.6919 63.9295 36.8604C64.1185 37.0292 64.2098 37.1967 64.2098 37.3614Z" stroke="white" stroke-opacity="0.2" stroke-width="0.0964322"/>
</g>
</g>
<g filter="url(#filter2_d_1002_6786)">
<path d="M2.13089 42.8782V37.5626C13.0189 40.1642 19.4467 39.8918 31.2128 37.5602V42.8702C31.2128 43.1196 31.035 43.3367 30.7905 43.3888C19.4797 45.7973 13.1547 45.8346 2.54402 43.3946C2.30371 43.3394 2.13089 43.1243 2.13089 42.8782Z" fill="url(#paint3_linear_1002_6786)" stroke="url(#paint4_linear_1002_6786)" stroke-width="0.0964322"/>
<g filter="url(#filter3_d_1002_6786)">
<ellipse cx="16.6719" cy="37.3614" rx="14.5892" ry="2.66411" fill="url(#paint5_linear_1002_6786)"/>
<path d="M31.2128 37.3614C31.2128 37.5261 31.1216 37.6936 30.9326 37.8623C30.7437 38.0309 30.4623 38.1957 30.0955 38.3541C29.3621 38.6707 28.298 38.957 26.9793 39.1978C24.3428 39.6792 20.6986 39.9773 16.6719 39.9773C12.6452 39.9773 9.0009 39.6792 6.36441 39.1978C5.04577 38.957 3.98162 38.6707 3.24827 38.3541C2.88142 38.1957 2.60006 38.0309 2.41118 37.8623C2.22211 37.6936 2.13089 37.5261 2.13089 37.3614C2.13089 37.1967 2.22211 37.0292 2.41118 36.8604C2.60006 36.6919 2.88142 36.527 3.24827 36.3687C3.98162 36.052 5.04577 35.7658 6.36441 35.525C9.0009 35.0436 12.6452 34.7455 16.6719 34.7455C20.6986 34.7455 24.3428 35.0436 26.9793 35.525C28.298 35.7658 29.3621 36.052 30.0955 36.3687C30.4623 36.527 30.7437 36.6919 30.9326 36.8604C31.1216 37.0292 31.2128 37.1967 31.2128 37.3614Z" stroke="white" stroke-opacity="0.2" stroke-width="0.0964322"/>
</g>
</g>
<g filter="url(#filter4_d_1002_6786)">
<path d="M35.1279 34.4417V29.1261C46.0159 31.7277 52.4437 31.4553 64.2098 29.1237V34.4337C64.2098 34.6831 64.032 34.9002 63.7875 34.9522C52.4767 37.3607 46.1517 37.3981 35.541 34.9581C35.3007 34.9029 35.1279 34.6878 35.1279 34.4417Z" fill="url(#paint6_linear_1002_6786)" stroke="url(#paint7_linear_1002_6786)" stroke-width="0.0964322"/>
<g filter="url(#filter5_d_1002_6786)">
<ellipse cx="49.6688" cy="28.9253" rx="14.5892" ry="2.66411" fill="url(#paint8_linear_1002_6786)"/>
<path d="M64.2098 28.9253C64.2098 29.09 64.1185 29.2576 63.9295 29.4263C63.7406 29.5948 63.4592 29.7597 63.0924 29.9181C62.359 30.2347 61.2949 30.5209 59.9762 30.7617C57.3398 31.2432 53.6955 31.5412 49.6688 31.5412C45.6421 31.5412 41.9978 31.2432 39.3613 30.7617C38.0427 30.5209 36.9785 30.2347 36.2452 29.9181C35.8783 29.7597 35.597 29.5948 35.4081 29.4263C35.219 29.2576 35.1278 29.09 35.1278 28.9253C35.1278 28.7607 35.219 28.5931 35.4081 28.4244C35.597 28.2558 35.8783 28.091 36.2452 27.9326C36.9785 27.616 38.0427 27.3298 39.3613 27.089C41.9978 26.6075 45.6421 26.3094 49.6688 26.3094C53.6955 26.3094 57.3398 26.6075 59.9762 27.089C61.2949 27.3298 62.359 27.616 63.0924 27.9326C63.4592 28.091 63.7406 28.2558 63.9295 28.4244C64.1185 28.5931 64.2098 28.7607 64.2098 28.9253Z" stroke="white" stroke-opacity="0.2" stroke-width="0.0964322"/>
</g>
</g>
<g filter="url(#filter6_d_1002_6786)">
<path d="M2.13089 34.4417V29.1261C13.0189 31.7277 19.4467 31.4553 31.2128 29.1237V34.4337C31.2128 34.6831 31.035 34.9002 30.7905 34.9522C19.4797 37.3607 13.1547 37.3981 2.54402 34.9581C2.30371 34.9029 2.13089 34.6878 2.13089 34.4417Z" fill="#925FE2" stroke="url(#paint9_linear_1002_6786)" stroke-width="0.0964322"/>
<g filter="url(#filter7_d_1002_6786)">
<ellipse cx="16.6719" cy="28.9253" rx="14.5892" ry="2.66411" fill="#925FE2"/>
<path d="M31.2128 28.9253C31.2128 29.09 31.1216 29.2576 30.9326 29.4263C30.7437 29.5948 30.4623 29.7597 30.0955 29.9181C29.3621 30.2347 28.298 30.5209 26.9793 30.7617C24.3428 31.2432 20.6986 31.5412 16.6719 31.5412C12.6452 31.5412 9.0009 31.2432 6.36441 30.7617C5.04577 30.5209 3.98162 30.2347 3.24827 29.9181C2.88142 29.7597 2.60006 29.5948 2.41118 29.4263C2.22211 29.2576 2.13089 29.09 2.13089 28.9253C2.13089 28.7607 2.22211 28.5931 2.41118 28.4244C2.60006 28.2558 2.88142 28.091 3.24827 27.9326C3.98162 27.616 5.04577 27.3298 6.36441 27.089C9.0009 26.6075 12.6452 26.3094 16.6719 26.3094C20.6986 26.3094 24.3428 26.6075 26.9793 27.089C28.298 27.3298 29.3621 27.616 30.0955 27.9326C30.4623 28.091 30.7437 28.2558 30.9326 28.4244C31.1216 28.5931 31.2128 28.7607 31.2128 28.9253Z" stroke="#E2D4F7" stroke-width="0.0964322"/>
</g>
<g filter="url(#filter8_f_1002_6786)">
<ellipse cx="16.8812" cy="29.0333" rx="7.83376" ry="0.602597" fill="#E2D4F7"/>
</g>
</g>
<g filter="url(#filter9_d_1002_6786)">
<path d="M35.1152 26.0311V20.7154C46.0032 23.3171 52.431 23.0447 64.1971 20.713V26.023C64.1971 26.2724 64.0193 26.4895 63.7748 26.5416C52.464 28.9501 46.139 28.9874 35.5283 26.5475C35.288 26.4922 35.1152 26.2771 35.1152 26.0311Z" fill="url(#paint10_linear_1002_6786)" stroke="url(#paint11_linear_1002_6786)" stroke-width="0.0964322"/>
<g filter="url(#filter10_d_1002_6786)">
<ellipse cx="49.6561" cy="20.5142" rx="14.5892" ry="2.66411" fill="url(#paint12_linear_1002_6786)"/>
<path d="M64.1971 20.5142C64.1971 20.6789 64.1058 20.8464 63.9168 21.0151C63.7279 21.1837 63.4465 21.3486 63.0797 21.5069C62.3463 21.8236 61.2822 22.1098 59.9635 22.3506C57.3271 22.832 53.6828 23.1301 49.6561 23.1301C45.6294 23.1301 41.9851 22.832 39.3486 22.3506C38.03 22.1098 36.9658 21.8236 36.2325 21.5069C35.8656 21.3486 35.5843 21.1837 35.3954 21.0151C35.2063 20.8464 35.1151 20.6789 35.1151 20.5142C35.1151 20.3495 35.2063 20.182 35.3954 20.0133C35.5843 19.8447 35.8656 19.6799 36.2325 19.5215C36.9658 19.2049 38.03 18.9186 39.3486 18.6778C41.9851 18.1964 45.6294 17.8983 49.6561 17.8983C53.6828 17.8983 57.3271 18.1964 59.9635 18.6778C61.2822 18.9186 62.3463 19.2049 63.0797 19.5215C63.4465 19.6799 63.7279 19.8447 63.9168 20.0133C64.1058 20.182 64.1971 20.3495 64.1971 20.5142Z" stroke="white" stroke-opacity="0.2" stroke-width="0.0964322"/>
</g>
</g>
<g filter="url(#filter11_d_1002_6786)">
<path d="M35.1152 17.6453V12.3297C46.0032 14.9313 52.431 14.6589 64.1971 12.3273V17.6373C64.1971 17.8867 64.0193 18.1038 63.7748 18.1558C52.464 20.5644 46.139 20.6017 35.5283 18.1617C35.288 18.1065 35.1152 17.8914 35.1152 17.6453Z" fill="url(#paint13_linear_1002_6786)" stroke="url(#paint14_linear_1002_6786)" stroke-width="0.0964322"/>
<g filter="url(#filter12_d_1002_6786)">
<ellipse cx="49.6561" cy="12.129" rx="14.5892" ry="2.66411" fill="url(#paint15_linear_1002_6786)"/>
<path d="M64.1971 12.129C64.1971 12.2936 64.1058 12.4612 63.9168 12.6299C63.7279 12.7985 63.4465 12.9633 63.0797 13.1217C62.3463 13.4383 61.2822 13.7245 59.9635 13.9653C57.3271 14.4468 53.6828 14.7449 49.6561 14.7449C45.6294 14.7449 41.9851 14.4468 39.3486 13.9653C38.03 13.7245 36.9658 13.4383 36.2325 13.1217C35.8656 12.9633 35.5843 12.7985 35.3954 12.6299C35.2063 12.4612 35.1151 12.2936 35.1151 12.129C35.1151 11.9643 35.2063 11.7967 35.3954 11.628C35.5843 11.4595 35.8656 11.2946 36.2325 11.1362C36.9658 10.8196 38.03 10.5334 39.3486 10.2926C41.9851 9.81113 45.6294 9.51306 49.6561 9.51306C53.6828 9.51306 57.3271 9.81113 59.9635 10.2926C61.2822 10.5334 62.3463 10.8196 63.0797 11.1362C63.4465 11.2946 63.7279 11.4595 63.9168 11.628C64.1058 11.7967 64.1971 11.9643 64.1971 12.129Z" stroke="white" stroke-opacity="0.2" stroke-width="0.0964322"/>
</g>
</g>
<g filter="url(#filter13_d_1002_6786)">
<path d="M31.0206 9.89776V4.58211C41.9086 7.18377 48.3364 6.91138 60.1025 4.57971V9.88971C60.1025 10.1391 59.9247 10.3562 59.6802 10.4083C48.3694 12.8168 42.0444 12.8541 31.4337 10.4142C31.1934 10.3589 31.0206 10.1438 31.0206 9.89776Z" fill="url(#paint16_linear_1002_6786)" stroke="url(#paint17_linear_1002_6786)" stroke-width="0.0964322"/>
<g filter="url(#filter14_d_1002_6786)">
<ellipse cx="45.5615" cy="4.3814" rx="14.5892" ry="2.66411" fill="url(#paint18_linear_1002_6786)"/>
<path d="M60.1025 4.3814C60.1025 4.54608 60.0112 4.71362 59.8222 4.88234C59.6333 5.05089 59.3519 5.21574 58.9851 5.37412C58.2517 5.69074 57.1876 5.97698 55.8689 6.21778C53.2325 6.69922 49.5882 6.9973 45.5615 6.9973C41.5348 6.9973 37.8905 6.69922 35.254 6.21778C33.9354 5.97698 32.8712 5.69074 32.1379 5.37412C31.771 5.21574 31.4897 5.05089 31.3008 4.88234C31.1117 4.71362 31.0205 4.54608 31.0205 4.3814C31.0205 4.21671 31.1117 4.04918 31.3008 3.88046C31.4897 3.7119 31.771 3.54706 32.1379 3.38867C32.8712 3.07206 33.9354 2.78581 35.254 2.54502C37.8905 2.06357 41.5348 1.7655 45.5615 1.7655C49.5882 1.7655 53.2325 2.06357 55.8689 2.54502C57.1876 2.78581 58.2517 3.07206 58.9851 3.38867C59.3519 3.54706 59.6333 3.7119 59.8222 3.88046C60.0112 4.04918 60.1025 4.21671 60.1025 4.3814Z" stroke="white" stroke-opacity="0.2" stroke-width="0.0964322"/>
</g>
</g>
<defs>
<filter id="filter0_d_1002_6786" x="34.3081" y="34.1187" width="32.65" height="14.0326" filterUnits="userSpaceOnUse" color-interpolation-filters="sRGB">
<feFlood flood-opacity="0" result="BackgroundImageFix"/>
<feColorMatrix in="SourceAlpha" type="matrix" values="0 0 0 0 0 0 0 0 0 0 0 0 0 0 0 0 0 0 127 0" result="hardAlpha"/>
<feOffset dx="0.964322" dy="1.15719"/>
<feGaussianBlur stdDeviation="0.86789"/>
<feComposite in2="hardAlpha" operator="out"/>
<feColorMatrix type="matrix" values="0 0 0 0 0.228976 0 0 0 0 0.34229 0 0 0 0 0.504167 0 0 0 0.15 0"/>
<feBlend mode="normal" in2="BackgroundImageFix" result="effect1_dropShadow_1002_6786"/>
<feBlend mode="normal" in="SourceGraphic" in2="effect1_dropShadow_1002_6786" result="shape"/>
</filter>
<filter id="filter1_d_1002_6786" x="33.5367" y="33.7329" width="32.2642" height="8.41396" filterUnits="userSpaceOnUse" color-interpolation-filters="sRGB">
<feFlood flood-opacity="0" result="BackgroundImageFix"/>
<feColorMatrix in="SourceAlpha" type="matrix" values="0 0 0 0 0 0 0 0 0 0 0 0 0 0 0 0 0 0 127 0" result="hardAlpha"/>
<feOffset dy="0.578593"/>
<feGaussianBlur stdDeviation="0.771458"/>
<feComposite in2="hardAlpha" operator="out"/>
<feColorMatrix type="matrix" values="0 0 0 0 0.6825 0 0 0 0 0.782885 0 0 0 0 0.9 0 0 0 0.5 0"/>
<feBlend mode="normal" in2="BackgroundImageFix" result="effect1_dropShadow_1002_6786"/>
<feBlend mode="normal" in="SourceGraphic" in2="effect1_dropShadow_1002_6786" result="shape"/>
</filter>
<filter id="filter2_d_1002_6786" x="1.31121" y="34.1187" width="32.6499" height="14.0326" filterUnits="userSpaceOnUse" color-interpolation-filters="sRGB">
<feFlood flood-opacity="0" result="BackgroundImageFix"/>
<feColorMatrix in="SourceAlpha" type="matrix" values="0 0 0 0 0 0 0 0 0 0 0 0 0 0 0 0 0 0 127 0" result="hardAlpha"/>
<feOffset dx="0.964322" dy="1.15719"/>
<feGaussianBlur stdDeviation="0.86789"/>
<feComposite in2="hardAlpha" operator="out"/>
<feColorMatrix type="matrix" values="0 0 0 0 0.228976 0 0 0 0 0.34229 0 0 0 0 0.504167 0 0 0 0.15 0"/>
<feBlend mode="normal" in2="BackgroundImageFix" result="effect1_dropShadow_1002_6786"/>
<feBlend mode="normal" in="SourceGraphic" in2="effect1_dropShadow_1002_6786" result="shape"/>
</filter>
<filter id="filter3_d_1002_6786" x="0.539756" y="33.7329" width="32.2642" height="8.41396" filterUnits="userSpaceOnUse" color-interpolation-filters="sRGB">
<feFlood flood-opacity="0" result="BackgroundImageFix"/>
<feColorMatrix in="SourceAlpha" type="matrix" values="0 0 0 0 0 0 0 0 0 0 0 0 0 0 0 0 0 0 127 0" result="hardAlpha"/>
<feOffset dy="0.578593"/>
<feGaussianBlur stdDeviation="0.771458"/>
<feComposite in2="hardAlpha" operator="out"/>
<feColorMatrix type="matrix" values="0 0 0 0 0.6825 0 0 0 0 0.782885 0 0 0 0 0.9 0 0 0 0.5 0"/>
<feBlend mode="normal" in2="BackgroundImageFix" result="effect1_dropShadow_1002_6786"/>
<feBlend mode="normal" in="SourceGraphic" in2="effect1_dropShadow_1002_6786" result="shape"/>
</filter>
<filter id="filter4_d_1002_6786" x="34.3081" y="25.6826" width="32.65" height="14.0321" filterUnits="userSpaceOnUse" color-interpolation-filters="sRGB">
<feFlood flood-opacity="0" result="BackgroundImageFix"/>
<feColorMatrix in="SourceAlpha" type="matrix" values="0 0 0 0 0 0 0 0 0 0 0 0 0 0 0 0 0 0 127 0" result="hardAlpha"/>
<feOffset dx="0.964322" dy="1.15719"/>
<feGaussianBlur stdDeviation="0.86789"/>
<feComposite in2="hardAlpha" operator="out"/>
<feColorMatrix type="matrix" values="0 0 0 0 0.228976 0 0 0 0 0.34229 0 0 0 0 0.504167 0 0 0 0.15 0"/>
<feBlend mode="normal" in2="BackgroundImageFix" result="effect1_dropShadow_1002_6786"/>
<feBlend mode="normal" in="SourceGraphic" in2="effect1_dropShadow_1002_6786" result="shape"/>
</filter>
<filter id="filter5_d_1002_6786" x="33.5367" y="25.2969" width="32.2642" height="8.41396" filterUnits="userSpaceOnUse" color-interpolation-filters="sRGB">
<feFlood flood-opacity="0" result="BackgroundImageFix"/>
<feColorMatrix in="SourceAlpha" type="matrix" values="0 0 0 0 0 0 0 0 0 0 0 0 0 0 0 0 0 0 127 0" result="hardAlpha"/>
<feOffset dy="0.578593"/>
<feGaussianBlur stdDeviation="0.771458"/>
<feComposite in2="hardAlpha" operator="out"/>
<feColorMatrix type="matrix" values="0 0 0 0 0.6825 0 0 0 0 0.782885 0 0 0 0 0.9 0 0 0 0.5 0"/>
<feBlend mode="normal" in2="BackgroundImageFix" result="effect1_dropShadow_1002_6786"/>
<feBlend mode="normal" in="SourceGraphic" in2="effect1_dropShadow_1002_6786" result="shape"/>
</filter>
<filter id="filter6_d_1002_6786" x="1.31121" y="25.6826" width="32.6499" height="14.0321" filterUnits="userSpaceOnUse" color-interpolation-filters="sRGB">
<feFlood flood-opacity="0" result="BackgroundImageFix"/>
<feColorMatrix in="SourceAlpha" type="matrix" values="0 0 0 0 0 0 0 0 0 0 0 0 0 0 0 0 0 0 127 0" result="hardAlpha"/>
<feOffset dx="0.964322" dy="1.15719"/>
<feGaussianBlur stdDeviation="0.86789"/>
<feComposite in2="hardAlpha" operator="out"/>
<feColorMatrix type="matrix" values="0 0 0 0 0.228976 0 0 0 0 0.34229 0 0 0 0 0.504167 0 0 0 0.15 0"/>
<feBlend mode="normal" in2="BackgroundImageFix" result="effect1_dropShadow_1002_6786"/>
<feBlend mode="normal" in="SourceGraphic" in2="effect1_dropShadow_1002_6786" result="shape"/>
</filter>
<filter id="filter7_d_1002_6786" x="0.539756" y="25.2969" width="32.2642" height="8.41396" filterUnits="userSpaceOnUse" color-interpolation-filters="sRGB">
<feFlood flood-opacity="0" result="BackgroundImageFix"/>
<feColorMatrix in="SourceAlpha" type="matrix" values="0 0 0 0 0 0 0 0 0 0 0 0 0 0 0 0 0 0 127 0" result="hardAlpha"/>
<feOffset dy="0.578593"/>
<feGaussianBlur stdDeviation="0.771458"/>
<feComposite in2="hardAlpha" operator="out"/>
<feColorMatrix type="matrix" values="0 0 0 0 0.6825 0 0 0 0 0.782885 0 0 0 0 0.9 0 0 0 0.5 0"/>
<feBlend mode="normal" in2="BackgroundImageFix" result="effect1_dropShadow_1002_6786"/>
<feBlend mode="normal" in="SourceGraphic" in2="effect1_dropShadow_1002_6786" result="shape"/>
</filter>
<filter id="filter8_f_1002_6786" x="5.19017" y="24.5734" width="23.3821" height="8.91966" filterUnits="userSpaceOnUse" color-interpolation-filters="sRGB">
<feFlood flood-opacity="0" result="BackgroundImageFix"/>
<feBlend mode="normal" in="SourceGraphic" in2="BackgroundImageFix" result="shape"/>
<feGaussianBlur stdDeviation="1.92864" result="effect1_foregroundBlur_1002_6786"/>
</filter>
<filter id="filter9_d_1002_6786" x="34.2954" y="17.2715" width="32.65" height="14.0326" filterUnits="userSpaceOnUse" color-interpolation-filters="sRGB">
<feFlood flood-opacity="0" result="BackgroundImageFix"/>
<feColorMatrix in="SourceAlpha" type="matrix" values="0 0 0 0 0 0 0 0 0 0 0 0 0 0 0 0 0 0 127 0" result="hardAlpha"/>
<feOffset dx="0.964322" dy="1.15719"/>
<feGaussianBlur stdDeviation="0.86789"/>
<feComposite in2="hardAlpha" operator="out"/>
<feColorMatrix type="matrix" values="0 0 0 0 0.228976 0 0 0 0 0.34229 0 0 0 0 0.504167 0 0 0 0.15 0"/>
<feBlend mode="normal" in2="BackgroundImageFix" result="effect1_dropShadow_1002_6786"/>
<feBlend mode="normal" in="SourceGraphic" in2="effect1_dropShadow_1002_6786" result="shape"/>
</filter>
<filter id="filter10_d_1002_6786" x="33.524" y="16.8858" width="32.2642" height="8.41396" filterUnits="userSpaceOnUse" color-interpolation-filters="sRGB">
<feFlood flood-opacity="0" result="BackgroundImageFix"/>
<feColorMatrix in="SourceAlpha" type="matrix" values="0 0 0 0 0 0 0 0 0 0 0 0 0 0 0 0 0 0 127 0" result="hardAlpha"/>
<feOffset dy="0.578593"/>
<feGaussianBlur stdDeviation="0.771458"/>
<feComposite in2="hardAlpha" operator="out"/>
<feColorMatrix type="matrix" values="0 0 0 0 0.6825 0 0 0 0 0.782885 0 0 0 0 0.9 0 0 0 0.5 0"/>
<feBlend mode="normal" in2="BackgroundImageFix" result="effect1_dropShadow_1002_6786"/>
<feBlend mode="normal" in="SourceGraphic" in2="effect1_dropShadow_1002_6786" result="shape"/>
</filter>
<filter id="filter11_d_1002_6786" x="34.2954" y="8.88625" width="32.65" height="14.0321" filterUnits="userSpaceOnUse" color-interpolation-filters="sRGB">
<feFlood flood-opacity="0" result="BackgroundImageFix"/>
<feColorMatrix in="SourceAlpha" type="matrix" values="0 0 0 0 0 0 0 0 0 0 0 0 0 0 0 0 0 0 127 0" result="hardAlpha"/>
<feOffset dx="0.964322" dy="1.15719"/>
<feGaussianBlur stdDeviation="0.86789"/>
<feComposite in2="hardAlpha" operator="out"/>
<feColorMatrix type="matrix" values="0 0 0 0 0.228976 0 0 0 0 0.34229 0 0 0 0 0.504167 0 0 0 0.15 0"/>
<feBlend mode="normal" in2="BackgroundImageFix" result="effect1_dropShadow_1002_6786"/>
<feBlend mode="normal" in="SourceGraphic" in2="effect1_dropShadow_1002_6786" result="shape"/>
</filter>
<filter id="filter12_d_1002_6786" x="33.524" y="8.50052" width="32.2642" height="8.41396" filterUnits="userSpaceOnUse" color-interpolation-filters="sRGB">
<feFlood flood-opacity="0" result="BackgroundImageFix"/>
<feColorMatrix in="SourceAlpha" type="matrix" values="0 0 0 0 0 0 0 0 0 0 0 0 0 0 0 0 0 0 127 0" result="hardAlpha"/>
<feOffset dy="0.578593"/>
<feGaussianBlur stdDeviation="0.771458"/>
<feComposite in2="hardAlpha" operator="out"/>
<feColorMatrix type="matrix" values="0 0 0 0 0.6825 0 0 0 0 0.782885 0 0 0 0 0.9 0 0 0 0.5 0"/>
<feBlend mode="normal" in2="BackgroundImageFix" result="effect1_dropShadow_1002_6786"/>
<feBlend mode="normal" in="SourceGraphic" in2="effect1_dropShadow_1002_6786" result="shape"/>
</filter>
<filter id="filter13_d_1002_6786" x="30.2008" y="1.13869" width="32.65" height="14.0321" filterUnits="userSpaceOnUse" color-interpolation-filters="sRGB">
<feFlood flood-opacity="0" result="BackgroundImageFix"/>
<feColorMatrix in="SourceAlpha" type="matrix" values="0 0 0 0 0 0 0 0 0 0 0 0 0 0 0 0 0 0 127 0" result="hardAlpha"/>
<feOffset dx="0.964322" dy="1.15719"/>
<feGaussianBlur stdDeviation="0.86789"/>
<feComposite in2="hardAlpha" operator="out"/>
<feColorMatrix type="matrix" values="0 0 0 0 0.228976 0 0 0 0 0.34229 0 0 0 0 0.504167 0 0 0 0.15 0"/>
<feBlend mode="normal" in2="BackgroundImageFix" result="effect1_dropShadow_1002_6786"/>
<feBlend mode="normal" in="SourceGraphic" in2="effect1_dropShadow_1002_6786" result="shape"/>
</filter>
<filter id="filter14_d_1002_6786" x="29.4294" y="0.752963" width="32.2642" height="8.41396" filterUnits="userSpaceOnUse" color-interpolation-filters="sRGB">
<feFlood flood-opacity="0" result="BackgroundImageFix"/>
<feColorMatrix in="SourceAlpha" type="matrix" values="0 0 0 0 0 0 0 0 0 0 0 0 0 0 0 0 0 0 127 0" result="hardAlpha"/>
<feOffset dy="0.578593"/>
<feGaussianBlur stdDeviation="0.771458"/>
<feComposite in2="hardAlpha" operator="out"/>
<feColorMatrix type="matrix" values="0 0 0 0 0.6825 0 0 0 0 0.782885 0 0 0 0 0.9 0 0 0 0.5 0"/>
<feBlend mode="normal" in2="BackgroundImageFix" result="effect1_dropShadow_1002_6786"/>
<feBlend mode="normal" in="SourceGraphic" in2="effect1_dropShadow_1002_6786" result="shape"/>
</filter>
<linearGradient id="paint0_linear_1002_6786" x1="49.6688" y1="37.5015" x2="57.9347" y2="54.5237" gradientUnits="userSpaceOnUse">
<stop stop-color="#925FE2"/>
<stop offset="1" stop-color="#E2D4F7"/>
</linearGradient>
<linearGradient id="paint1_linear_1002_6786" x1="49.6688" y1="37.5015" x2="49.6688" y2="45.2581" gradientUnits="userSpaceOnUse">
<stop stop-color="#0291E2"/>
<stop offset="1" stop-color="#DFE7F5"/>
</linearGradient>
<linearGradient id="paint2_linear_1002_6786" x1="49.6688" y1="34.6973" x2="54.0062" y2="47.7006" gradientUnits="userSpaceOnUse">
<stop stop-color="#925FE2"/>
<stop offset="1" stop-color="#E2D4F7"/>
</linearGradient>
<linearGradient id="paint3_linear_1002_6786" x1="16.6719" y1="37.5015" x2="26.644" y2="52.5581" gradientUnits="userSpaceOnUse">
<stop stop-color="#925FE2"/>
<stop offset="1" stop-color="#E2D4F7"/>
</linearGradient>
<linearGradient id="paint4_linear_1002_6786" x1="16.6719" y1="37.5015" x2="16.6719" y2="45.2581" gradientUnits="userSpaceOnUse">
<stop stop-color="#0291E2"/>
<stop offset="1" stop-color="#DFE7F5"/>
</linearGradient>
<linearGradient id="paint5_linear_1002_6786" x1="16.6719" y1="34.6973" x2="22.2805" y2="47.0252" gradientUnits="userSpaceOnUse">
<stop stop-color="#925FE2"/>
<stop offset="1" stop-color="#E2D4F7"/>
</linearGradient>
<linearGradient id="paint6_linear_1002_6786" x1="49.6688" y1="29.0649" x2="57.0369" y2="49.5705" gradientUnits="userSpaceOnUse">
<stop stop-color="#925FE2"/>
<stop offset="1" stop-color="#E2D4F7"/>
</linearGradient>
<linearGradient id="paint7_linear_1002_6786" x1="49.6688" y1="29.0649" x2="49.6688" y2="36.8216" gradientUnits="userSpaceOnUse">
<stop stop-color="#0291E2"/>
<stop offset="1" stop-color="#DFE7F5"/>
</linearGradient>
<linearGradient id="paint8_linear_1002_6786" x1="49.6688" y1="26.2612" x2="53.369" y2="41.2523" gradientUnits="userSpaceOnUse">
<stop stop-color="#925FE2"/>
<stop offset="1" stop-color="#E2D4F7"/>
</linearGradient>
<linearGradient id="paint9_linear_1002_6786" x1="16.6719" y1="29.0649" x2="16.6719" y2="36.8216" gradientUnits="userSpaceOnUse">
<stop stop-color="#925FE2"/>
<stop offset="1" stop-color="#E2D4F7"/>
</linearGradient>
<linearGradient id="paint10_linear_1002_6786" x1="49.6561" y1="20.6543" x2="58.6059" y2="39.2091" gradientUnits="userSpaceOnUse">
<stop stop-color="#925FE2"/>
<stop offset="1" stop-color="#E2D4F7"/>
</linearGradient>
<linearGradient id="paint11_linear_1002_6786" x1="49.6561" y1="20.6543" x2="49.6561" y2="28.411" gradientUnits="userSpaceOnUse">
<stop stop-color="#0291E2"/>
<stop offset="1" stop-color="#DFE7F5"/>
</linearGradient>
<linearGradient id="paint12_linear_1002_6786" x1="49.6561" y1="17.8501" x2="54.3467" y2="32.007" gradientUnits="userSpaceOnUse">
<stop stop-color="#925FE2"/>
<stop offset="1" stop-color="#E2D4F7"/>
</linearGradient>
<linearGradient id="paint13_linear_1002_6786" x1="49.6561" y1="12.2686" x2="55.9307" y2="30.0252" gradientUnits="userSpaceOnUse">
<stop stop-color="#925FE2"/>
<stop offset="1" stop-color="#E2D4F7"/>
</linearGradient>
<linearGradient id="paint14_linear_1002_6786" x1="49.6561" y1="12.2686" x2="49.6561" y2="20.0252" gradientUnits="userSpaceOnUse">
<stop stop-color="#0291E2"/>
<stop offset="1" stop-color="#DFE7F5"/>
</linearGradient>
<linearGradient id="paint15_linear_1002_6786" x1="49.6561" y1="9.46484" x2="52.8012" y2="22.4219" gradientUnits="userSpaceOnUse">
<stop stop-color="#925FE2"/>
<stop offset="1" stop-color="#E2D4F7"/>
</linearGradient>
<linearGradient id="paint16_linear_1002_6786" x1="45.5615" y1="4.521" x2="48.817" y2="26.5568" gradientUnits="userSpaceOnUse">
<stop stop-color="#925FE2"/>
<stop offset="1" stop-color="#E2D4F7"/>
</linearGradient>
<linearGradient id="paint17_linear_1002_6786" x1="45.5615" y1="4.521" x2="45.5615" y2="12.2777" gradientUnits="userSpaceOnUse">
<stop stop-color="#0291E2"/>
<stop offset="1" stop-color="#DFE7F5"/>
</linearGradient>
<linearGradient id="paint18_linear_1002_6786" x1="45.5615" y1="1.71728" x2="47.1151" y2="17.0269" gradientUnits="userSpaceOnUse">
<stop stop-color="#925FE2"/>
<stop offset="1" stop-color="#E2D4F7"/>
</linearGradient>
</defs>
</svg>
