<svg width="211" height="216" viewBox="0 0 211 216" fill="none" xmlns="http://www.w3.org/2000/svg">
<path d="M115.956 70.0278L115.359 81.3558C118.736 84.6203 124.188 86.1033 130.9 86.5049C138.348 85.3258 144.386 83.3022 148.833 80.326L147.638 63.334L115.956 70.0278Z" fill="#FFA382"/>
<path d="M115.956 70.0278V73.1173L127.912 70.0278H115.956Z" fill="#FE7649"/>
<path d="M109.979 24.2008V27.9854C109.978 28.5241 109.627 29.017 109.07 29.2623C108.513 29.5075 107.844 29.4638 107.337 29.1491C104.288 27.2903 101.012 22.0743 99.6674 16.5081C97.9758 9.29936 105.047 2.71366 113.476 3.74863C116.101 4.0852 118.637 4.81909 120.966 5.9164C121.363 6.10256 121.832 6.14134 122.264 6.02384C122.696 5.90633 123.053 5.64265 123.255 5.29336C127.822 -2.72893 134.738 -0.144084 142.67 7.00801C143.144 7.43026 143.87 7.55902 144.499 7.3324C154.32 3.80527 157.799 6.42616 156.873 13.3877C156.821 13.7738 156.955 14.1614 157.242 14.4607C157.53 14.7601 157.947 14.9454 158.397 14.9737C168.183 15.5916 165.827 22.4862 159.796 31.2808C159.365 31.8975 158.474 32.1476 157.704 31.8678C154.374 30.7299 151.977 32.6042 149.879 35.4207C149.593 35.8018 149.531 36.2765 149.712 36.7028C154.9 48.9525 151.254 64.6161 149.114 66.6809C146.723 68.9774 135.581 74.4509 114.713 70.3367C114.535 70.3072 114.365 70.2496 114.211 70.1668C109.787 67.8806 108.413 61.5936 108.765 53.0358" fill="#001047"/>
<path d="M148.833 34.4993C149.486 33.007 150.796 31.7968 152.479 31.1318C154.28 30.3939 156.419 30.6576 157.907 31.8012C159.555 32.9996 160.59 34.7086 160.788 36.5589C161.141 39.2777 159.132 41.0438 156.156 42.4135C155.636 42.6565 155.068 42.8137 154.482 42.8769C152.867 43.1125 151.217 42.6795 150.029 41.708" fill="#FFA385"/>
<path d="M137.476 29.2983C140.815 29.3505 143.691 31.3408 144.469 34.1385C144.963 36.119 145.223 38.1373 145.247 40.1629C145.522 46.9648 145.348 53.3652 143.609 58.3443C142.515 61.464 138.848 63.3567 135.138 62.7159C129.257 61.7427 123.727 61.8097 118.7 63.3544C115.422 64.3178 111.808 63.1813 110.021 60.6254C109.943 60.5173 109.865 60.4091 109.794 60.2959C109.125 59.308 108.788 58.1797 108.819 57.0365L109.357 30.0501C109.363 29.7282 109.518 29.4218 109.788 29.1986C110.057 28.9754 110.418 28.8537 110.792 28.8606L137.476 29.2983Z" fill="#FF9C78"/>
<path d="M112.968 32.4392C114.934 31.1108 116.769 30.7812 118.347 32.4392" stroke="#A9552B" stroke-width="0.51491"/>
<path d="M130.303 32.9541C132.353 32.1251 134.254 31.7698 135.682 32.9541" stroke="#A9552B" stroke-width="0.51491"/>
<path d="M116.554 46.3422C117.214 46.3422 117.75 45.5353 117.75 44.54C117.75 43.5447 117.214 42.7378 116.554 42.7378C115.894 42.7378 115.359 43.5447 115.359 44.54C115.359 45.5353 115.894 46.3422 116.554 46.3422Z" fill="#000F47"/>
<path d="M132.694 46.3422C133.354 46.3422 133.889 45.5353 133.889 44.54C133.889 43.5447 133.354 42.7378 132.694 42.7378C132.033 42.7378 131.498 43.5447 131.498 44.54C131.498 45.5353 132.033 46.3422 132.694 46.3422Z" fill="#000F47"/>
<path d="M125.52 46.3418C123.335 48.3393 121.88 50.8462 121.336 53.5505C123.016 54.6936 125.084 54.6164 127.314 54.0654" stroke="#A9552B" stroke-width="0.51491"/>
<path d="M128.509 57.1551C130.303 57.1551 135.085 56.6402 136.28 54.5806" stroke="#000F47" stroke-width="0.51491" stroke-linecap="round" stroke-linejoin="round"/>
<path fill-rule="evenodd" clip-rule="evenodd" d="M114.91 48.659C119.45 48.659 123.129 45.4892 123.129 41.579C123.129 37.6688 119.45 34.499 114.91 34.499C110.371 34.499 106.691 37.6688 106.691 41.579C106.691 45.4892 110.371 48.659 114.91 48.659Z" stroke="#000F47" stroke-width="0.51491" stroke-linecap="round" stroke-linejoin="round"/>
<path fill-rule="evenodd" clip-rule="evenodd" d="M134.003 48.659C138.542 48.659 142.222 45.4892 142.222 41.579C142.222 37.6688 138.542 34.499 134.003 34.499C129.463 34.499 125.784 37.6688 125.784 41.579C125.784 45.4892 129.463 48.659 134.003 48.659Z" stroke="#000F47" stroke-width="0.51491" stroke-linecap="round" stroke-linejoin="round"/>
<path d="M123.428 41.4503H125.819" stroke="#000F47" stroke-width="0.51491" stroke-linecap="round" stroke-linejoin="round"/>
<path d="M141.959 41.4503H145.318" stroke="#000F47" stroke-width="0.51491" stroke-linejoin="round"/>
<path d="M153.537 32.2233C155.755 31.6054 157.309 32.2233 158.098 34.2418" stroke="#A9552B" stroke-width="0.51491"/>
<path d="M210.522 140.807C210.629 144.648 201.555 147.789 197.102 147.594C194.305 147.476 191.534 147.064 188.853 146.368C186.362 145.74 183.672 146.238 181.701 147.692C179.73 149.147 178.746 151.36 179.086 153.577L186.886 206.216C187.165 208.096 186.497 209.988 185.05 211.416C183.604 212.843 181.518 213.67 179.319 213.687L75.0098 214.13C72.8544 214.147 70.7895 213.385 69.3179 212.028C67.8463 210.671 67.103 208.845 67.2689 206.994L74.1132 128.3C74.2924 126.27 73.3775 124.282 71.6325 122.909L56.5032 110.994C54.5673 109.476 53.6655 107.212 54.1122 104.99C55.8338 96.6278 59.4621 88.8939 69.2773 83.199C70.2313 82.644 71.3183 82.2814 72.4574 82.1383C86.1282 80.3979 99.4761 78.9716 112.34 78.019L113.248 77.952C125.431 87.3285 138.558 85.1608 152.186 76.7266H152.987C162.786 76.8926 172.558 77.6583 182.23 79.0179C183.318 79.1768 184.352 79.5388 185.26 80.0786C193.33 84.8312 204.777 92.5858 209.087 102.972C209.361 103.633 209.508 104.329 209.523 105.031L210.522 140.807Z" fill="#76E699"/>
<path d="M153.017 76.2065V76.7215L149.431 194.636L109.979 193.091L112.37 78.0087V77.2364C112.669 77.4784 112.968 77.7152 113.261 77.9418C125.443 87.3183 138.57 85.1505 152.199 76.7163L153.017 76.2065Z" fill="#F6FCFF"/>
<path d="M112.37 77.2368C121.115 84.0336 132.646 87.0201 153.615 77.2368" stroke="#1D3332" stroke-width="2.57455"/>
<path d="M130.9 99.3776C132.221 99.3776 133.291 98.4554 133.291 97.3179C133.291 96.1804 132.221 95.2583 130.9 95.2583C129.58 95.2583 128.509 96.1804 128.509 97.3179C128.509 98.4554 129.58 99.3776 130.9 99.3776Z" fill="#1D3332"/>
<path d="M179.929 156.723L180.861 164.771L163.729 148.134L179.929 156.723Z" fill="#428055"/>
<path d="M130.9 107.101C132.221 107.101 133.291 106.179 133.291 105.042C133.291 103.904 132.221 102.982 130.9 102.982C129.58 102.982 128.509 103.904 128.509 105.042C128.509 106.179 129.58 107.101 130.9 107.101Z" fill="#1D3332"/>
<path d="M210.402 135.937C184.997 129.686 149.162 119.717 143.453 120.489C139.472 115.371 134.75 113.826 129.705 113.795C127.69 115.943 128.934 117.338 131.498 118.43C125.61 119.701 118.61 130.86 118.192 132.255C117.188 135.344 117.666 138.434 119.543 141.601C121.169 138.12 123.727 135.633 127.912 134.907C131.97 138.29 136.669 138.614 141.66 137.481L144.051 134.392C165.182 150.297 187.263 162.599 210.402 170.95" fill="#FFA483"/>
<path d="M137.476 118.429C127.26 118.661 121.749 123.619 118.945 131.302" stroke="#000111" stroke-width="0.51491"/>
<path d="M127.912 135.421C126.716 131.642 126.83 128.429 130.303 126.668" stroke="#000111" stroke-width="0.51491"/>
<path opacity="0.3" d="M109.381 214.203H119.543L111.772 78.2666L109.381 214.203Z" fill="#1F2E3D"/>
<path d="M132.395 136.709C130.841 133.902 130.99 131.302 133.59 128.985" stroke="#000111" stroke-width="0.51491"/>
<path d="M143.154 135.679C143.154 135.679 140.763 134.649 139.568 134.649C138.697 134.45 137.884 134.1 137.177 133.619" stroke="#000111" stroke-width="0.51491"/>
<path d="M137.177 135.679L139.568 134.649" stroke="#000111" stroke-width="0.51491"/>
<path d="M199.158 132.996L165.989 124.598" stroke="#000111" stroke-width="0.51491"/>
<path opacity="0.1" d="M56.1805 79.811H118.945L135.085 113.795L72.32 116.37" fill="#022AB7"/>
<path opacity="0.1" d="M6.56653 97.3179H99.2191L124.325 149.324L26.8903 151.383" fill="#022AB7"/>
<path d="M157.202 155.503V162.197H118.347V155.503" fill="#8492AC"/>
<path d="M118.347 155.503V162.197H16.7284V155.503" fill="#E1E5ED"/>
<path d="M0.588989 103.497L94.4371 104.012L118.347 155.503H22.1083" fill="#F4F3F2"/>
<path d="M37.7815 103.652L12.5442 132.332L0.588989 103.497" fill="#BFCAD4"/>
<path d="M18.4261 163.984C18.1989 163.937 17.9837 163.881 17.7745 163.824C14.8405 162.942 13.0623 160.376 13.5544 157.733L13.7397 135.937L19.9623 145.926C20.0537 146.27 20.3044 146.568 20.6564 146.75C21.0085 146.932 21.4314 146.982 21.8273 146.889C31.1464 144.69 38.8993 144.767 43.6276 149.324C43.239 150.539 42.2228 151.214 40.6388 151.384C42.2408 152.151 43.1075 153.443 43.6276 154.988C42.4978 156.389 40.8062 156.723 38.8455 156.533C40.591 157.321 42.1033 158.289 42.4321 160.137C42.187 161.002 40.8839 161.378 39.4433 161.682H78.716C79.1311 161.683 79.514 161.875 79.7201 162.185C79.9261 162.495 79.9239 162.877 79.7142 163.186C74.1073 171.11 63.6286 175.028 50.6154 176.913C49.5511 177.07 48.4637 177.07 47.3994 176.913C37.4109 175.394 28.4565 172.253 21.6958 165.678C20.8316 164.839 19.6908 164.248 18.4261 163.984Z" fill="#FFA583"/>
<path d="M31.0747 156.018C31.0747 156.018 37.5843 155.462 39.7063 157.048" stroke="#000111" stroke-width="0.51491"/>
<path d="M32.2701 150.354C32.2701 150.354 37.65 149.839 40.6388 151.384" stroke="#000111" stroke-width="0.51491"/>
<path d="M13.1418 160.137C16.3458 163.906 20.6915 165.024 26.2925 163.227" stroke="#000111" stroke-width="0.51491"/>
<path d="M43.7352 161.682H79.7142C80.0065 161.69 80.269 161.838 80.3947 162.066C80.5204 162.293 80.4885 162.562 80.312 162.763L77.108 166.414C76.9653 166.576 76.7465 166.676 76.5103 166.687C65.1827 166.82 54.2318 165.142 43.5618 163.015C43.1696 162.942 42.9054 162.625 42.9501 162.281C42.9948 161.938 43.3338 161.679 43.7352 161.682Z" fill="#E8957C"/>
<path d="M113.864 160.652C114.689 160.652 115.359 160.075 115.359 159.364C115.359 158.653 114.689 158.077 113.864 158.077C113.039 158.077 112.37 158.653 112.37 159.364C112.37 160.075 113.039 160.652 113.864 160.652Z" fill="#022AB7"/>
<rect x="126.716" y="158.077" width="5.97758" height="2.57455" rx="1.04012" fill="#022AB7"/>
<rect x="136.878" y="158.077" width="5.97758" height="2.57455" rx="1.04012" fill="#022AB7"/>
<path d="M109.381 193.606L109.997 213.687L148.182 215.232L150.029 194.121" fill="#1F2E3D"/>
</svg>
